Coordinates
version=1
nRows=5
nColumns=40
inDegrees=yes

Units are S.I. units (second, meters, Newtons, ...)
Angles are in degrees.

endheader
time	pelvis_tilt	pelvis_list	pelvis_rotation	pelvis_tx	pelvis_ty	pelvis_tz	hip_flexion_r	hip_adduction_r	hip_rotation_r	knee_angle_r	knee_angle_r_beta	ankle_angle_r	subtalar_angle_r	mtp_angle_r	hip_flexion_l	hip_adduction_l	hip_rotation_l	knee_angle_l	knee_angle_l_beta	ankle_angle_l	subtalar_angle_l	mtp_angle_l	lumbar_extension	lumbar_bending	lumbar_rotation	arm_flex_r	arm_add_r	arm_rot_r	elbow_flex_r	pro_sup_r	wrist_flex_r	wrist_dev_r	arm_flex_l	arm_add_l	arm_rot_l	elbow_flex_l	pro_sup_l	wrist_flex_l	wrist_dev_l
      0.64000000	     -1.66116517	     -0.30983231	      8.92326872	      0.00818903	      0.87869554	     -1.06971149	     27.87283886	     -1.05770946	    -14.29250159	    -27.79642670	     -0.48513917	     -0.05502221	    -10.57856889	      9.22873919	     -1.89796594	      4.93851634	      2.12967398	    -44.54568139	     -0.77746881	    -14.40535780	      9.12622373	     -3.73899792	     -3.17011949	      0.45072452	    -13.98718569	    -14.57442478	     -9.55609401	    -18.31931693	     19.87597637	     89.95437384	      0.00000000	      0.00000000	     -0.14064670	     17.02349400	     19.03541890	     71.07230284	     89.95437384	      0.00000000	      0.00000000
      0.65000000	     -1.62949528	     -0.85382185	      8.69667020	      0.02142344	      0.87935889	     -1.06815667	     27.13584791	     -0.05873421	    -13.86093878	    -28.00546240	     -0.48878753	      0.38379553	    -10.91895108	      9.28998769	     -0.62874404	      5.92952332	      2.16420058	    -46.83176572	     -0.81736851	    -18.44250527	      8.99672586	     -2.89297464	     -2.94551024	      1.06613108	    -13.63678852	    -14.32811730	     -9.57272435	    -18.29440030	     20.21404768	     89.95437384	      0.00000000	      0.00000000	     -0.96427228	     16.55530204	     19.10337198	     70.38406053	     89.95437384	      0.00000000	      0.00000000
      0.66000000	     -1.34921727	     -0.92551685	      8.51381510	      0.03414506	      0.88063242	     -1.06732173	     26.10751232	      0.33759749	    -13.52995729	    -28.35316860	     -0.49485615	      1.23435587	    -10.72847827	      9.03358935	      0.30750644	      6.09422142	      1.60222804	    -49.03233108	     -0.85577562	    -21.21940062	      9.02604528	     -2.49363975	     -3.16168181	      1.26129344	    -13.34195362	    -13.93470637	     -9.56754894	    -18.29160068	     20.57000367	     89.95437384	      0.00000000	      0.00000000	     -1.67392322	     16.13340373	     19.04909896	     69.61741682	     89.95437384	      0.00000000	      0.00000000
      0.67000000	     -1.28229622	     -1.22250363	      8.27123504	      0.04644562	      0.88161171	     -1.06633544	     25.24416526	      0.92022477	    -13.50208795	    -28.45283011	     -0.49659557	      2.08585322	    -10.34052726	      8.76414690	      1.72373490	      6.49651788	      1.18317438	    -51.52054537	     -0.89920315	    -23.51692310	      9.16290200	     -2.13749922	     -3.17303705	      1.66080732	    -12.96904662	    -13.50909355	     -9.57948925	    -18.29750105	     21.02639578	     89.95437384	      0.00000000	      0.00000000	     -2.43112471	     15.65699607	     18.96585743	     68.88792222	     89.95437384	      0.00000000	      0.00000000
      0.68000000	     -1.49283841	     -1.67753205	      8.01166005	      0.05801156	      0.88209757	     -1.06516574	     24.71406926	      1.59633572	    -13.69849126	    -28.44676130	     -0.49648965	      2.77266772	     -9.74959104	      8.51171627	      3.76325732	      7.07588077	      0.94352265	    -54.38812230	     -0.94925181	    -24.47372544	      9.69295089	     -1.73302835	     -2.96493965	      2.18858850	    -12.46773538	    -13.13301656	     -9.58391172	    -18.33805863	     21.62859820	     89.95437384	      0.00000000	      0.00000000	     -3.08621924	     15.11933531	     18.84546265	     68.13602603	     89.95437384	      0.00000000	      0.00000000
